<?xml version="1.0" standalone="no"?>
<!DOCTYPE svg PUBLIC "-//W3C//DTD SVG 20010904//EN"
 "http://www.w3.org/TR/2001/REC-SVG-20010904/DTD/svg10.dtd">
<svg version="1.0" xmlns="http://www.w3.org/2000/svg"
 width="360.000000pt" height="360.000000pt" viewBox="0 0 360.000000 360.000000"
 preserveAspectRatio="xMidYMid meet">

<g transform="translate(0.000000,360.000000) scale(0.100000,-0.100000)"
fill="#03877a" stroke="none">
<path d="M1842 3346 c-13 -17 -21 -48 -25 -98 -7 -85 -43 -282 -57 -315 -12
-28 -46 -30 -59 -4 -20 36 -30 108 -32 214 -1 67 -6 113 -14 123 -11 16 -14
16 -39 -9 -18 -18 -27 -38 -28 -64 -1 -21 -3 -49 -4 -63 -1 -14 -2 -50 -3 -81
-1 -69 -26 -108 -56 -91 -14 7 -23 31 -31 83 -7 40 -18 83 -25 95 -16 31 -57
37 -71 11 -11 -20 -9 -53 12 -227 16 -136 40 -477 40 -568 0 -102 4 -99 -175
-101 -71 0 -154 -4 -182 -7 -29 -4 -68 -3 -86 0 -30 6 -37 14 -67 79 -41 86
-57 107 -82 107 -22 0 -33 -25 -42 -100 -11 -86 -18 -90 -160 -90 -134 0 -191
-16 -191 -55 0 -29 44 -46 133 -52 90 -6 142 -19 142 -37 0 -7 -11 -25 -24
-39 -24 -26 -54 -34 -261 -72 -95 -17 -148 -40 -153 -67 -6 -33 38 -42 243
-49 110 -4 201 -7 203 -8 1 -1 2 -10 2 -21 0 -30 -37 -48 -151 -71 -111 -23
-143 -35 -172 -67 -34 -37 4 -45 169 -37 l144 7 0 -25 c0 -20 -10 -29 -57 -52
-62 -29 -103 -61 -103 -81 0 -45 78 -47 218 -6 53 16 140 42 192 57 52 14 106
31 120 35 14 5 41 12 60 16 19 3 40 9 45 13 6 3 14 6 20 6 5 0 17 35 26 77 19
88 23 79 -66 138 -63 41 -111 93 -136 145 l-18 40 32 3 c23 3 62 -12 144 -53
62 -31 115 -57 119 -58 3 -1 19 33 34 75 52 142 124 219 277 297 95 49 147 61
289 68 l131 6 12 91 c6 50 28 188 47 306 49 292 43 394 -20 361 -27 -15 -48
-54 -66 -118 -12 -49 -44 -83 -76 -83 -32 0 -38 36 -38 230 -1 174 -9 210 -46
210 -10 0 -27 -11 -38 -24z"/>
<path d="M2915 2410 c-59 -13 -405 -67 -515 -81 l-95 -12 34 -34 c32 -32 33
-36 28 -92 -8 -95 -66 -203 -168 -315 -28 -31 -49 -59 -46 -62 3 -4 61 -17
129 -31 167 -33 227 -62 341 -163 44 -39 105 -69 129 -62 19 5 20 10 15 62 -4
31 -9 64 -13 73 -8 23 8 22 131 -8 56 -14 122 -27 146 -29 49 -4 89 16 89 45
0 20 -53 59 -81 59 -9 0 -47 9 -83 20 -69 22 -92 45 -81 80 8 24 25 27 237 37
143 7 169 11 188 28 30 28 22 58 -20 71 -19 6 -101 14 -182 18 -147 6 -236 25
-245 53 -13 38 90 72 223 74 66 1 135 18 141 36 2 6 -4 20 -15 31 -16 16 -39
20 -133 25 -135 6 -172 17 -167 49 2 19 16 26 82 44 44 12 88 32 100 44 21 21
21 21 2 36 -22 15 -105 17 -171 4z"/>
<path d="M1895 2324 c-129 -21 -270 -84 -353 -159 -29 -26 -55 -57 -58 -70 -3
-13 -12 -26 -20 -29 -8 -3 -14 -15 -14 -26 0 -30 -18 -60 -35 -60 -8 0 -15 -6
-15 -13 0 -10 -35 -84 -45 -95 -7 -8 -172 72 -207 99 -61 48 -56 33 10 -34 34
-35 87 -76 117 -92 l54 -30 -5 -45 c-3 -25 -12 -68 -20 -97 -18 -65 -17 -87 2
-48 14 28 14 24 9 -60 -3 -59 -2 -83 4 -70 5 11 10 34 10 52 1 27 17 119 36
199 8 35 48 37 138 10 79 -23 212 -41 185 -25 -24 15 0 19 45 8 93 -25 275 29
397 119 2 2 -1 6 -8 11 -8 5 -3 16 19 37 17 16 38 43 45 61 9 21 19 30 28 27
22 -8 96 163 96 221 0 56 -126 105 -285 110 -55 2 -113 1 -130 -1z m277 -75
c74 -27 74 -30 27 -149 -17 -41 -43 -90 -58 -108 l-28 -33 -26 34 c-29 38 -63
105 -56 110 2 1 21 15 41 30 20 15 41 27 47 27 6 0 11 5 11 10 0 16 -46 12
-60 -6 -8 -8 -22 -20 -32 -25 -21 -11 -30 -4 -67 51 -12 19 -20 26 -16 15 21
-57 13 -65 -14 -15 -35 65 -38 80 -11 55 19 -17 19 -17 11 13 -9 30 -8 31 27
34 44 4 126 -13 204 -43z m-310 -16 c10 -9 18 -22 18 -30 0 -7 9 -13 20 -13
18 0 20 -5 15 -41 -7 -53 -8 -55 -50 -69 -19 -6 -35 -16 -35 -21 0 -5 18 0 40
11 44 22 60 25 60 10 0 -5 -8 -10 -18 -10 -21 0 -42 -18 -42 -37 0 -18 30 -16
52 4 17 15 19 15 36 0 10 -9 33 -45 52 -81 l35 -64 -25 -20 c-36 -30 -122 -60
-204 -73 -135 -21 -386 16 -386 57 0 8 -6 11 -15 8 -22 -9 -19 0 21 78 45 85
88 140 144 184 64 51 61 32 -5 -28 -51 -46 -105 -116 -105 -134 0 -4 20 20 45
51 44 58 128 135 169 157 14 8 17 13 8 16 -17 5 96 60 127 61 14 1 33 -6 43
-16z m184 -198 c14 -25 24 -48 22 -50 -5 -6 -58 73 -58 86 0 18 10 8 36 -36z
m44 -89 c0 -3 -4 -8 -10 -11 -5 -3 -10 -1 -10 4 0 6 5 11 10 11 6 0 10 -2 10
-4z"/>
<path d="M2020 1735 c-25 -12 -70 -28 -100 -35 -82 -20 -276 -15 -389 9 -51
12 -97 18 -102 15 -5 -3 -9 -14 -9 -25 0 -14 7 -19 30 -19 30 0 30 0 30 -57 0
-66 -24 -405 -40 -563 -41 -403 -49 -577 -28 -598 40 -40 83 11 91 105 6 80
23 123 47 123 22 0 41 -113 38 -226 -2 -55 2 -89 11 -108 16 -29 59 -46 71
-27 4 7 10 92 13 189 6 187 17 242 47 242 39 0 56 -58 70 -248 16 -203 40
-282 86 -282 29 0 38 52 39 240 1 192 8 229 47 253 26 17 46 -7 58 -71 20
-101 30 -131 53 -157 16 -18 28 -23 45 -19 19 6 22 13 22 63 0 31 -7 130 -15
221 -9 91 -20 224 -25 295 -6 72 -15 184 -21 250 -6 66 -14 195 -18 286 l-6
167 -45 -23z"/>
<path d="M1357 1626 c-10 -24 -20 -142 -12 -134 7 7 26 140 21 146 -2 1 -6 -4
-9 -12z"/>
</g>
</svg>
